# xmcd CD database file
#
# Track frame offsets:
#	150
#	18207
#	32260
#	48175
#	63837
#	81447
#	97210
#	113617
#	128965
#	147470
#
# Disc length: 2189 seconds
#
# Revision: 0
# Processed by: cddbd v1.5PL3 Copyright (c) Steve Scherf et al.
# Submitted via: CDex 1.51
#
DISCID=7e088b0a
DTITLE=DENNIS MARSH - FOR YOU
DYEAR=1990
DGENRE=Country
TTITLE0=SEVEN SPANISH ANGELS
TTITLE1=THE WONDER OF YOU
TTITLE2=LIFE TURN HER THAT WAY
TTITLE3=WONDERLAND BY NIGHT
TTITLE4=FUNNY HOW TIME SLIPS AWAY
TTITLE5=GOOD HEARTED WOMAN
TTITLE6=OH MUM
TTITLE7=I ONLEY SEE YOU
TTITLE8=MONA LISA
TTITLE9=THE PERFORMER
EXTD=YEAR: 1990
EXTT0=
EXTT1=
EXTT2=
EXTT3=
EXTT4=
EXTT5=
EXTT6=
EXTT7=
EXTT8=
EXTT9=
PLAYORDER=
